# xmcd
#
# Track frame offsets:
#	150
#	17130
#	32657
#	54297
#	72185
#	88340
#	105320
#	120847
#	142490
#	160365
#
# Disc length: 2354 seconds
#
# Revision: 1
# Processed by: cddbd v1.5.1PL0 Copyright (c) Steve Scherf et al.
# Submitted via: audiograbber 1.83.01
#
DISCID=8209300a
DTITLE=LeAnn Rimes - Sing Like LeAnn Rimes v.2
DYEAR=2002
DGENRE=Kareoke
TTITLE0=Can't Fight the Moonlight (Kareoke Instrumental)
TTITLE1=But I Do Love You (Kareoke Instrumental)
TTITLE2=Please Remember (Kareoke Instrumental)
TTITLE3=The Right Kind of Wrong (Kareoke Instrumental)
TTITLE4=I Need You (Kareoke Instrumental)
TTITLE5=Can't Fight the Moonlight (Kareoke Reference Vocals)
TTITLE6=But I Do Love You (Kareoke Reference Vocals)
TTITLE7=Please Remember (Kareoke Reference Vocals)
TTITLE8=The Right Kind of Wrong (Kareoke Reference Vocals)
TTITLE9=I Need You (Kareoke Reference Vocals)
EXTD=
EXTT0=
EXTT1=
EXTT2=
EXTT3=
EXTT4=
EXTT5=
EXTT6=
EXTT7=
EXTT8=
EXTT9=
PLAYORDER=
